<svg width="16" height="16" viewBox="0 0 16 16" fill="none" xmlns="http://www.w3.org/2000/svg">
<path fill-rule="evenodd" clip-rule="evenodd" d="M14.333 1.66654L9.33318 1.66654L9.33318 2.99988L12.0564 2.99988L6.46884 8.58773L7.41167 9.53051L12.9996 3.9423L12.9995 6.66652L14.3328 6.66657L14.333 1.66654ZM7.33288 2.99984L2.99955 2.99984L2.99955 12.9998L12.9995 12.9998L12.9995 8.6665L14.3329 8.6665L14.3329 13.3332C14.3329 13.8855 13.8852 14.3332 13.3329 14.3332L2.66621 14.3332C2.11393 14.3332 1.66621 13.8855 1.66621 13.3332L1.66621 2.6665C1.66621 2.11422 2.11393 1.6665 2.66621 1.6665L7.33288 1.6665L7.33288 2.99984Z" fill="#1C1C23" fill-opacity="0.4"/>
</svg>
