<svg width="48" height="48" viewBox="0 0 48 48" fill="none" xmlns="http://www.w3.org/2000/svg">
<rect width="48" height="48" rx="8" fill="white"/>
<g clip-path="url(#clip0_440_5014)">
<path d="M15.5546 8.07178C14.1757 8.07178 12.8533 8.61954 11.8783 9.59456C10.9032 10.5696 10.3555 11.892 10.3555 13.2709V34.8009C10.3555 36.1798 10.9032 37.5022 11.8783 38.4772C12.8533 39.4522 14.1757 40 15.5546 40H31.7579C32.441 40.0011 33.1175 39.8673 33.7488 39.6064C34.38 39.3455 34.9536 38.9626 35.4366 38.4796C35.9196 37.9966 36.3025 37.423 36.5634 36.7918C36.8243 36.1605 36.9581 35.484 36.957 34.8009V18.773C36.9562 18.2482 36.7502 17.7444 36.3829 17.3696L27.6592 8.65389C27.2895 8.28267 26.7877 8.07331 26.2638 8.07178H15.5546Z" fill="#1C1C23" fill-opacity="0.2"/>
<path d="M22.0361 24.2328L18.9525 22.528C18.4497 22.2877 18.0353 22.5099 18.0308 23.0216L18 26.7263C17.9959 27.238 18.4036 27.8536 18.9063 28.0938L21.99 29.7987C22.4927 30.0389 22.9072 29.8168 22.9116 29.305L22.9424 25.6004C22.9465 25.0886 22.5389 24.4734 22.0361 24.2328ZM28.2982 21.4908C28.8663 21.1019 28.8984 20.5146 28.3694 20.186L24.4034 18.2245C23.8445 17.9303 23.3565 17.907 22.6821 18.2638L18.6977 20.21C18.1296 20.5989 18.0975 21.1862 18.6265 21.5148L22.4557 23.6156C22.9848 23.9446 23.7645 23.9359 24.4505 23.5762L28.2982 21.4908ZM28.9692 22.952C28.9651 22.4402 28.5503 22.2181 28.0475 22.4583L24.7245 24.2677C24.2218 24.5079 23.8141 25.1234 23.8182 25.6352L23.849 29.4094C23.8531 29.9212 24.2679 30.1433 24.7706 29.9031L28.0937 28.0938C28.5964 27.8536 29.0041 27.238 29 26.7263L28.9692 22.952Z" fill="white"/>
<path d="M36.3831 17.3695L27.6595 8.65386C27.3837 8.37742 27.0306 8.19113 26.6468 8.1196C26.6163 8.10866 26.5836 8.1056 26.5517 8.11072C26.5198 8.11584 26.4897 8.12897 26.4642 8.14887C26.4387 8.16878 26.4187 8.19482 26.406 8.22456C26.3933 8.25431 26.3883 8.28678 26.3916 8.31895V12.5372C26.3916 13.3352 26.5488 14.1253 26.8541 14.8625C27.1595 15.5997 27.6071 16.2696 28.1713 16.8338C28.7355 17.398 29.4054 17.8456 30.1426 18.151C30.8798 18.4563 31.6699 18.6135 32.4678 18.6135H36.7579C36.7847 18.6078 36.81 18.5969 36.8325 18.5814C36.855 18.5659 36.8743 18.5461 36.8891 18.5231C36.9039 18.5001 36.914 18.4744 36.9189 18.4475C36.9238 18.4206 36.9232 18.393 36.9174 18.3663C36.838 17.9899 36.6526 17.6441 36.3831 17.3695Z" fill="#1C1C23" fill-opacity="0.1"/>
<path d="M32.7152 17.6327H36.5986C36.5316 17.5411 36.4598 17.4533 36.3833 17.3695L27.6596 8.65387C27.5813 8.57134 27.4929 8.49901 27.3965 8.43857V12.314C27.3965 13.7246 27.9568 15.0774 28.9543 16.0749C29.9518 17.0723 31.3046 17.6327 32.7152 17.6327Z" fill="white" fill-opacity="0.7"/>
</g>
<defs>
<clipPath id="clip0_440_5014">
<rect width="32" height="32" fill="white" transform="translate(8 8)"/>
</clipPath>
</defs>
</svg>
