<svg width="48" height="48" viewBox="0 0 48 48" fill="none" xmlns="http://www.w3.org/2000/svg">
<rect width="48" height="48" rx="8" fill="white"/>
<g clip-path="url(#clip0_440_4855)">
<path d="M15.9315 8.00001C15.2469 7.99896 14.5688 8.13302 13.9362 8.39452C13.3035 8.65601 12.7286 9.0398 12.2446 9.52387C11.7605 10.0079 11.3767 10.5828 11.1152 11.2155C10.8537 11.8482 10.7197 12.5262 10.7207 13.2108V34.7892C10.7197 35.4738 10.8537 36.1519 11.1152 36.7845C11.3767 37.4172 11.7605 37.9921 12.2446 38.4761C12.7286 38.9602 13.3035 39.344 13.9362 39.6055C14.5688 39.867 15.2469 40.0011 15.9315 40H32.1712C32.8555 40 33.5331 39.8652 34.1653 39.6034C34.7975 39.3415 35.372 38.9577 35.8558 38.4738C36.3397 37.9899 36.7235 37.4155 36.9854 36.7833C37.2473 36.1511 37.382 35.4735 37.382 34.7892V18.7253C37.3828 18.4658 37.3323 18.2087 37.2336 17.9687C37.1348 17.7287 36.9897 17.5105 36.8066 17.3267L28.0634 8.58343C27.7027 8.22099 27.2159 8.01195 26.7047 8.00001H15.9315Z" fill="#3F70FF"/>
<path d="M36.8065 17.3267L28.0633 8.58343C27.7869 8.30637 27.433 8.11966 27.0483 8.04796C27.0199 8.04312 26.9907 8.04473 26.963 8.0527C26.9353 8.06066 26.9098 8.07476 26.8883 8.09396C26.8668 8.11316 26.8499 8.13696 26.8388 8.16358C26.8278 8.19021 26.8229 8.21898 26.8245 8.24776V12.4755C26.8235 13.2759 26.9802 14.0687 27.2858 14.8085C27.5914 15.5483 28.0398 16.2206 28.6054 16.7869C29.171 17.3533 29.8427 17.8026 30.5821 18.1091C31.3215 18.4157 32.114 18.5734 32.9144 18.5734H37.1422C37.1707 18.5727 37.1987 18.5658 37.2243 18.5533C37.2499 18.5409 37.2726 18.523 37.2907 18.5011C37.3089 18.4791 37.3221 18.4536 37.3296 18.4261C37.3371 18.3986 37.3386 18.3698 37.334 18.3417C37.267 17.9571 37.0828 17.6026 36.8065 17.3267Z" fill="#2A58D8"/>
<path d="M33.0975 17.5904H36.9896C36.9266 17.4956 36.8543 17.4073 36.7738 17.3267L28.0626 8.58343C27.9803 8.50486 27.8921 8.43272 27.7988 8.36765V12.2518C27.7988 13.6608 28.3558 15.0127 29.3483 16.0127C30.3409 17.0128 31.6886 17.5799 33.0975 17.5904Z" fill="#C6E1FF"/>
<path d="M31.2129 22.1166C31.5727 22.1107 31.9301 22.1744 32.2646 22.307C32.6003 22.4402 32.9065 22.6389 33.165 22.891L33.2256 22.9496L33.1689 23.0111L32.4893 23.7543L32.4297 23.8197L32.3662 23.7592C32.06 23.4683 31.6557 23.3027 31.2334 23.2953H31.2324C31.0158 23.2883 30.7999 23.33 30.6016 23.4174C30.4037 23.5046 30.2268 23.6342 30.0859 23.7982L30.0869 23.7992C29.7585 24.1968 29.5916 24.7033 29.6191 25.2182V25.2279C29.5881 25.7475 29.7461 26.2605 30.0645 26.6723C30.2025 26.8393 30.3774 26.9724 30.5752 27.0609C30.7736 27.1497 30.9899 27.1908 31.207 27.182H31.21C31.448 27.1806 31.6837 27.1317 31.9023 27.0375C32.121 26.9432 32.3189 26.8053 32.4834 26.6332L32.5459 26.5678L32.6084 26.6342L33.2881 27.3617L33.3428 27.4203L33.2881 27.4799C33.0182 27.77 32.6895 27.9992 32.3242 28.1527C31.9589 28.3062 31.5651 28.3807 31.1689 28.3705V28.3695C30.7694 28.3885 30.3697 28.3277 29.9941 28.1898C29.6168 28.0513 29.2708 27.8388 28.9775 27.5639L28.9756 27.5619C28.6738 27.2604 28.4392 26.8985 28.2861 26.5004C28.1339 26.1044 28.0668 25.6809 28.0879 25.2572L28.0869 25.0951C28.0952 24.7182 28.1726 24.3451 28.3164 23.9955C28.4808 23.596 28.7277 23.2354 29.041 22.9379C29.3297 22.6627 29.671 22.4484 30.0439 22.307C30.4155 22.1663 30.8119 22.1025 31.209 22.1166V22.1156L31.21 22.1166C31.2112 22.1166 31.2126 22.1156 31.2139 22.1156L31.2129 22.1166ZM24.3535 22.1C24.7468 22.0834 25.1394 22.1471 25.5068 22.2885C25.8753 22.4302 26.2108 22.6462 26.4922 22.9232L26.4951 22.9262C26.7773 23.233 26.9956 23.5935 27.1367 23.9857C27.2778 24.3781 27.3394 24.795 27.3174 25.2113C27.339 25.6282 27.2786 26.0455 27.1387 26.4389C26.9976 26.8352 26.7783 27.2001 26.4951 27.5111L26.4932 27.5131C26.2143 27.7941 25.8783 28.0135 25.5088 28.1557C25.1408 28.2971 24.7471 28.3593 24.3535 28.3383C23.9587 28.3598 23.5636 28.2981 23.1943 28.1566C22.8234 28.0145 22.4871 27.7947 22.207 27.5131L22.2041 27.5111C21.9209 27.2001 21.7026 26.8352 21.5615 26.4389C21.4215 26.0454 21.3612 25.6283 21.3828 25.2113L21.3779 25.0551C21.3762 24.691 21.438 24.3291 21.5615 23.9857C21.7027 23.5932 21.9211 23.2326 22.2041 22.9262L22.207 22.9232C22.4896 22.6456 22.8264 22.4293 23.1963 22.2875C23.565 22.1462 23.9591 22.0828 24.3535 22.1ZM17.3311 22.2191C18.0833 22.168 18.8291 22.3606 19.46 22.7631L19.7236 22.9486L19.7295 22.9535V22.9545C20.0343 23.2423 20.2713 23.5942 20.4238 23.9848C20.5751 24.3721 20.6387 24.7877 20.6113 25.2025C20.6399 25.6241 20.5773 26.047 20.4268 26.4418C20.276 26.837 20.0407 27.195 19.7383 27.4906L19.7334 27.4955C19.1586 27.9644 18.4475 28.2293 17.7119 28.2543L17.3955 28.2504H15.4766V22.2191H17.3311ZM24.334 23.2875C24.1298 23.2875 23.9275 23.3327 23.7422 23.4184C23.5571 23.5041 23.3928 23.6291 23.2607 23.7846C22.9664 24.1963 22.8214 24.6961 22.8496 25.2016V25.2113C22.8227 25.7254 22.968 26.2337 23.2627 26.6557L23.3652 26.7709C23.4737 26.8796 23.6003 26.9694 23.7393 27.0365C23.9247 27.126 24.1281 27.1723 24.334 27.1723C24.5399 27.1722 24.7433 27.126 24.9287 27.0365C25.0963 26.9556 25.2435 26.8398 25.3652 26.6996L25.3945 26.6596C25.6938 26.2379 25.8431 25.7278 25.8184 25.2113L25.8174 25.2016H25.8184C25.8467 24.6944 25.6997 24.1931 25.4033 23.7807C25.2717 23.6269 25.1086 23.5034 24.9248 23.4184C24.7396 23.3327 24.538 23.2875 24.334 23.2875ZM17.2686 23.3266L17.2568 23.3275H16.9434V27.1469L17.2529 27.1342H17.2607L17.2676 27.1352C17.5242 27.168 17.7852 27.1407 18.0293 27.0551C18.2734 26.9695 18.4939 26.8278 18.6738 26.642C18.8538 26.4561 18.9887 26.2306 19.0664 25.9838C19.1439 25.7372 19.1621 25.4754 19.1211 25.2201L19.1191 25.2074L19.1211 25.1937C19.1591 24.9411 19.138 24.6827 19.0586 24.4398C18.9792 24.1972 18.8439 23.9766 18.6641 23.7953C18.4842 23.6139 18.2646 23.4763 18.0225 23.3949C17.7802 23.3135 17.5215 23.2906 17.2686 23.3266Z" fill="#F5F6FA" stroke="white" stroke-width="0.172747"/>
</g>
<defs>
<clipPath id="clip0_440_4855">
<rect width="32" height="32" fill="white" transform="translate(8 8)"/>
</clipPath>
</defs>
</svg>
