<svg width="48" height="48" viewBox="0 0 48 48" fill="none" xmlns="http://www.w3.org/2000/svg">
<rect width="48" height="48" rx="8" fill="white"/>
<path d="M14 8H28.0048L38 18V36C38 38.2092 36.2092 40 34 40H14C11.7908 40 10 38.2092 10 36V12C10 9.7908 11.7908 8 14 8Z" fill="#00BD76"/>
<path d="M29.4258 21.9638C29.8287 21.9638 30.1875 22.0205 30.5 22.1357C30.812 22.2505 31.0779 22.4112 31.2969 22.6171C31.5165 22.8234 31.6919 23.0726 31.8105 23.3495C31.9327 23.6318 32.0091 23.9377 32.042 24.2675L32.0479 24.3222H30.627L30.624 24.2753C30.6133 24.1078 30.5815 23.9423 30.5283 23.7831C30.4848 23.6527 30.4129 23.5333 30.3184 23.4335L30.2402 23.3642C30.1582 23.2999 30.0648 23.2511 29.9648 23.2197L29.9639 23.2187C29.8185 23.1697 29.6389 23.1445 29.4258 23.1445C29.0487 23.1446 28.7606 23.264 28.5557 23.4999L28.4727 23.6083C28.2626 23.92 28.1533 24.4093 28.1533 25.0859V25.5156C28.1533 25.7624 28.1664 25.9859 28.1934 26.1855L28.2256 26.3769L28.2656 26.5527C28.3111 26.72 28.3713 26.8638 28.4463 26.9843C28.5457 27.1437 28.6751 27.2625 28.832 27.3417C28.9885 27.4208 29.1804 27.4609 29.4092 27.4609C29.6135 27.4609 29.7879 27.4384 29.9326 27.3935C30.0768 27.3487 30.1952 27.2804 30.29 27.1913C30.3889 27.0965 30.4659 26.9809 30.5137 26.8525V26.8515C30.5671 26.7134 30.6011 26.5516 30.6152 26.3652L30.6191 26.3193H32.0371L32.0342 26.372C32.0141 26.6872 31.9378 26.9964 31.8096 27.2851C31.6879 27.5582 31.5103 27.8028 31.2881 28.0029C31.0659 28.2025 30.797 28.3587 30.4824 28.4706C30.1673 28.5825 29.8084 28.6376 29.4082 28.6376C28.9925 28.6376 28.617 28.5659 28.2832 28.4208C27.9559 28.2802 27.6652 28.0654 27.4346 27.7939C27.2027 27.522 27.0256 27.1928 26.9023 26.8085C26.7789 26.4232 26.7178 25.9914 26.7178 25.5156V25.0947C26.7178 24.6182 26.7812 24.1864 26.9092 23.7997C27.037 23.4132 27.2183 23.0834 27.4531 22.8115C27.6868 22.5402 27.979 22.3255 28.3076 22.1835C28.6426 22.0365 29.0156 21.9639 29.4258 21.9638ZM20.6211 22.0517V23.2197H17.6592V24.6445H20.1904V25.7773H17.6592V27.3906H20.6299V28.5497H16.2412V22.0517H20.6211ZM22.4727 22.0517L22.4873 22.0781L23.6426 24.2021L24.7988 22.0781L24.8135 22.0517H26.4463L26.4023 22.1269L24.5527 25.2734L26.4502 28.4745L26.4951 28.5497H24.8438L24.8291 28.5244L23.6426 26.3622L22.4561 28.5244L22.4424 28.5497H20.791L20.8359 28.4745L22.7324 25.2744L20.8848 22.1269L20.8398 22.0517H22.4727Z" fill="white" stroke="white" stroke-width="0.1"/>
<path d="M28 8L38 18H32C29.7908 18 28 16.2092 28 14V8Z" fill="#19EA9C"/>
</svg>
