<svg width="48" height="48" viewBox="0 0 48 48" fill="none" xmlns="http://www.w3.org/2000/svg">
<rect width="48" height="48" rx="8" fill="white"/>
<path d="M15.5546 8.07177C14.1757 8.07177 12.8533 8.61953 11.8783 9.59455C10.9032 10.5696 10.3555 11.892 10.3555 13.2709V34.8009C10.3555 36.1798 10.9032 37.5022 11.8783 38.4772C12.8533 39.4522 14.1757 40 15.5546 40H31.7579C32.441 40.001 33.1175 39.8673 33.7488 39.6064C34.38 39.3455 34.9536 38.9625 35.4366 38.4796C35.9196 37.9966 36.3025 37.423 36.5634 36.7917C36.8243 36.1605 36.9581 35.4839 36.957 34.8009V18.773C36.9562 18.2481 36.7502 17.7444 36.3829 17.3695L27.6592 8.65387C27.2895 8.28265 26.7877 8.0733 26.2638 8.07177H15.5546Z" fill="#FFAB4E"/>
<path d="M19.5576 27.6667C20.4626 27.6667 21.3571 27.5359 21.8981 27.3772V23.8291H19.2039V25.0149H20.4313V26.4155C20.1921 26.4622 19.9528 26.4715 19.6616 26.4715C18.2469 26.4715 17.7268 26.0514 17.7268 24.3333C17.7268 22.69 18.3509 22.2138 19.7344 22.2138C20.3585 22.2138 21.0139 22.2979 21.5548 22.4753V21.2334C21.1179 21.084 20.3065 21 19.6096 21C17.3731 21 16 21.831 16 24.3333C16 27.0504 17.3419 27.6667 19.5576 27.6667ZM23.4064 27.5733H24.9875V21.0934H23.4064V27.5733ZM31 22.3259V21.0934H26.5895V27.5733H28.1706V25.0523H30.792V23.8291H28.1706V22.3259H31Z" fill="white"/>
<path d="M36.3831 17.3695L27.6595 8.65387C27.3837 8.37743 27.0306 8.19114 26.6468 8.11961C26.6163 8.10867 26.5836 8.10561 26.5517 8.11073C26.5198 8.11585 26.4897 8.12898 26.4642 8.14889C26.4387 8.16879 26.4187 8.19483 26.406 8.22458C26.3933 8.25432 26.3883 8.28679 26.3916 8.31896V12.5373C26.3916 13.3352 26.5488 14.1253 26.8541 14.8625C27.1595 15.5997 27.6071 16.2696 28.1713 16.8338C28.7355 17.398 29.4054 17.8456 30.1426 18.151C30.8798 18.4563 31.6699 18.6135 32.4678 18.6135H36.7579C36.7847 18.6078 36.81 18.5969 36.8325 18.5814C36.855 18.5659 36.8743 18.5461 36.8891 18.5231C36.9039 18.5001 36.914 18.4744 36.9189 18.4475C36.9238 18.4206 36.9232 18.393 36.9174 18.3663C36.838 17.9899 36.6526 17.6441 36.3831 17.3695Z" fill="#E79E4F"/>
<path d="M32.7152 17.6327H36.5986C36.5316 17.5411 36.4598 17.4533 36.3833 17.3695L27.6596 8.65388C27.5813 8.57135 27.4929 8.49901 27.3965 8.43858V12.314C27.3965 13.7246 27.9568 15.0774 28.9543 16.0749C29.9518 17.0723 31.3046 17.6327 32.7152 17.6327Z" fill="#FFE8CF"/>
</svg>
