<svg width="48" height="48" viewBox="0 0 48 48" fill="none" xmlns="http://www.w3.org/2000/svg">
<rect width="48" height="48" rx="8" fill="white"/>
<g transform="translate(8, 8)">
<g clip-path="url(#clip0_1118_3378)">
<path d="M7.55457 0.0717773C6.17568 0.0717773 4.85327 0.619538 3.87825 1.59456C2.90323 2.56958 2.35547 3.89199 2.35547 5.27088V26.8009C2.35547 28.1798 2.90323 29.5022 3.87825 30.4772C4.85327 31.4522 6.17568 32 7.55457 32H23.7579C24.441 32.0011 25.1175 31.8673 25.7488 31.6064C26.38 31.3455 26.9536 30.9626 27.4366 30.4796C27.9196 29.9966 28.3025 29.423 28.5634 28.7918C28.8243 28.1605 28.9581 27.484 28.957 26.8009V10.773C28.9562 10.2482 28.7502 9.74444 28.3829 9.36956L19.6592 0.653885C19.2895 0.282666 18.7877 0.0733095 18.2638 0.0717773H7.55457Z" fill="#1C1C23"/>
<path fill-rule="evenodd" clip-rule="evenodd" d="M19.7242 12.1518C19.458 11.9389 19.1252 11.9389 18.8589 12.2227C18.5927 12.5066 18.5927 12.8615 18.7923 13.1453L18.8589 13.2163L22.3867 16.9777L18.8589 20.7391L18.7923 20.8101C18.5927 21.023 18.5927 21.3778 18.7923 21.6617L18.8589 21.7327L18.9255 21.8036C19.1252 22.0165 19.458 22.0165 19.7242 21.8036L19.7908 21.7327L23.7845 17.4745L23.8511 17.4035C24.0508 17.1906 24.0508 16.8358 23.8511 16.5519L23.7845 16.4809L19.7908 12.2227L19.7242 12.1518ZM17.5287 12.0808C17.1959 11.9388 16.8631 12.0808 16.7299 12.4356V12.5066L14.0674 21.0229V21.0939C14.0009 21.4487 14.2006 21.8036 14.5334 21.9455C14.8662 22.0875 15.199 21.9455 15.3321 21.5907V21.5197L17.9946 13.0034V12.9324C18.0612 12.5775 17.8615 12.2227 17.5287 12.0808Z" fill="white"/>
<path d="M12.2027 12.2227C12.4689 11.9388 12.8683 11.9388 13.1345 12.2227C13.4008 12.5066 13.4008 12.8614 13.2011 13.1453L13.1345 13.2162L9.60672 16.9776L13.1345 20.739C13.4008 21.0229 13.4008 21.3777 13.2011 21.6616L13.1345 21.7326C12.8683 22.0165 12.5355 22.0165 12.2692 21.8036L12.2027 21.7326L8.2089 17.4744C7.94265 17.1905 7.94265 16.8357 8.14234 16.5518L8.2089 16.4808L12.2027 12.2227Z" fill="#7F3BF5"/>
<path d="M28.3831 9.36963L19.6595 0.653954C19.3837 0.377513 19.0306 0.191223 18.6468 0.11969C18.6163 0.108747 18.5836 0.105693 18.5517 0.110812C18.5198 0.115932 18.4897 0.129058 18.4642 0.148966C18.4387 0.168874 18.4187 0.194914 18.406 0.224656C18.3933 0.254397 18.3883 0.28687 18.3916 0.319042V4.53733C18.3916 5.33528 18.5488 6.12541 18.8541 6.86261C19.1595 7.59982 19.6071 8.26966 20.1713 8.83389C20.7355 9.39812 21.4054 9.8457 22.1426 10.1511C22.8798 10.4564 23.6699 10.6136 24.4678 10.6136H28.7579C28.7847 10.6079 28.81 10.597 28.8325 10.5815C28.855 10.566 28.8743 10.5461 28.8891 10.5232C28.9039 10.5002 28.914 10.4745 28.9189 10.4476C28.9238 10.4207 28.9232 10.3931 28.9174 10.3664C28.838 9.98999 28.6526 9.64415 28.3831 9.36963Z" fill="#555555"/>
<path d="M24.7152 9.63259H28.5986C28.5316 9.54104 28.4598 9.45319 28.3833 9.36945L19.6596 0.653777C19.5813 0.571251 19.4929 0.498915 19.3965 0.438477V4.31388C19.3965 5.72449 19.9568 7.07733 20.9543 8.07478C21.9518 9.07223 23.3046 9.63259 24.7152 9.63259Z" fill="#C0C0C0"/>
</g>
</g>
<defs>
<clipPath id="clip0_1118_3378">
<rect width="32" height="32" fill="white"/>
</clipPath>
</defs>
</svg>
