<svg width="48" height="48" viewBox="0 0 48 48" fill="none" xmlns="http://www.w3.org/2000/svg">
<rect width="48" height="48" rx="8" fill="white"/>
<g transform="translate(10.5, 8)">
<mask id="mask0_1116_3329" style="mask-type:luminance" maskUnits="userSpaceOnUse" x="-3" y="-1" width="33" height="33">
<path fill-rule="evenodd" clip-rule="evenodd" d="M-2.36076 -0.0719272H29.7112V32H-2.36076V-0.0719272Z" fill="white"/>
</mask>
<g mask="url(#mask0_1116_3329)">
<path fill-rule="evenodd" clip-rule="evenodd" d="M5.21079 0C3.8288 0 2.50342 0.548992 1.5262 1.5262C0.548992 2.50342 0 3.8288 0 5.21079V26.7892C0 28.1712 0.548992 29.4966 1.5262 30.4738C2.50342 31.451 3.8288 32 5.21079 32H21.4505C22.1351 32.001 22.8132 31.867 23.4459 31.6055C24.0785 31.344 24.6534 30.9602 25.1375 30.4761C25.6215 29.9921 26.0053 29.4172 26.2668 28.7845C26.5283 28.1519 26.6624 27.4738 26.6613 26.7892V10.7253C26.6606 10.1993 26.454 9.69441 26.0859 9.31868L17.3426 0.583416C16.9721 0.211362 16.4691 0.00153558 15.9441 0H5.21079Z" fill="#8F8472"/>
<path d="M6.65947 19.912V12.9573H8.79469L10.0758 17.7158L11.357 12.9573H13.4922V19.973H12.211V14.4825L10.8079 19.973H9.46576L8.06261 14.4825V19.973L6.65947 19.912ZM14.8343 12.9573H17.3966C18.0067 12.9573 18.4337 13.0183 18.7387 13.0793C19.1658 13.2013 19.4708 13.3843 19.7758 13.7504C20.0809 14.0554 20.2639 14.4214 20.4469 14.9095C20.6299 15.3365 20.6909 15.8856 20.6909 16.5567C20.6909 17.1057 20.6299 17.6548 20.4469 18.0208C20.2639 18.5089 20.0199 18.9359 19.7148 19.241C19.4708 19.485 19.1658 19.668 18.7387 19.79C18.4337 19.912 18.0067 19.912 17.5186 19.912H14.8343V12.9573ZM16.2375 14.1164V18.7529H17.2746C17.6406 18.7529 17.9456 18.7529 18.1287 18.6919C18.3727 18.6309 18.5557 18.5089 18.6777 18.3869C18.7997 18.2648 18.9217 18.0208 19.0438 17.7158C19.1658 17.4108 19.1658 16.9837 19.1658 16.4347C19.1658 15.8856 19.1048 15.4586 19.0438 15.2145C18.9217 14.9095 18.7997 14.7265 18.6167 14.5435C18.4337 14.3604 18.2507 14.2994 17.9456 14.2384C17.7626 14.1774 17.3356 14.1774 16.7865 14.1774H16.2375V14.1164Z" fill="white"/>
<path fill-rule="evenodd" clip-rule="evenodd" d="M26.0862 9.31868L17.3429 0.583416C17.0665 0.306354 16.7126 0.119645 16.3279 0.0479518C16.2974 0.036984 16.2646 0.0339227 16.2326 0.0390537C16.2006 0.0441846 16.1705 0.0573406 16.1449 0.0772933C16.1194 0.097246 16.0993 0.123345 16.0866 0.153153C16.0739 0.182961 16.0689 0.215507 16.0722 0.247752V4.47552C16.0722 5.27526 16.2297 6.06717 16.5357 6.80603C16.8418 7.54489 17.2904 8.21624 17.8559 8.78174C18.4214 9.34724 19.0927 9.79582 19.8316 10.1019C20.5704 10.4079 21.3623 10.5654 22.1621 10.5654H26.4618C26.4886 10.5597 26.514 10.5488 26.5366 10.5333C26.5591 10.5177 26.5784 10.4978 26.5933 10.4748C26.6081 10.4518 26.6183 10.426 26.6231 10.3991C26.628 10.3721 26.6275 10.3444 26.6216 10.3177C26.542 9.94044 26.3562 9.59382 26.0862 9.31868Z" fill="#1C1C23" fill-opacity="0.1"/>
<path fill-rule="evenodd" clip-rule="evenodd" d="M22.41 9.58242H26.3021C26.235 9.49066 26.163 9.40261 26.0863 9.31868L17.3431 0.583419C17.2645 0.500707 17.1759 0.428209 17.0793 0.367634V4.25175C17.0793 5.66553 17.6409 7.02141 18.6406 8.0211C19.6403 9.0208 20.9962 9.58242 22.41 9.58242Z" fill="white" fill-opacity="0.7"/>
</g>
</g>
</svg>
