<svg width="48" height="48" viewBox="0 0 48 48" fill="none" xmlns="http://www.w3.org/2000/svg">
<rect width="48" height="48" rx="8" fill="white"/>
<path d="M15.5546 8.07177C14.1757 8.07177 12.8533 8.61953 11.8783 9.59455C10.9032 10.5696 10.3555 11.892 10.3555 13.2709V34.8009C10.3555 36.1798 10.9032 37.5022 11.8783 38.4772C12.8533 39.4522 14.1757 40 15.5546 40H31.7579C32.441 40.001 33.1175 39.8673 33.7488 39.6064C34.38 39.3455 34.9536 38.9625 35.4366 38.4796C35.9196 37.9966 36.3025 37.423 36.5634 36.7917C36.8243 36.1605 36.9581 35.4839 36.957 34.8009V18.773C36.9562 18.2481 36.7502 17.7444 36.3829 17.3695L27.6592 8.65387C27.2895 8.28265 26.7877 8.0733 26.2638 8.07177H15.5546Z" fill="#FE5359"/>
<path d="M36.3831 17.3695L27.6595 8.65387C27.3837 8.37743 27.0306 8.19114 26.6468 8.11961C26.6163 8.10867 26.5836 8.10561 26.5517 8.11073C26.5198 8.11585 26.4897 8.12898 26.4642 8.14889C26.4387 8.16879 26.4187 8.19483 26.406 8.22458C26.3933 8.25432 26.3883 8.28679 26.3916 8.31896V12.5373C26.3916 13.3352 26.5488 14.1253 26.8541 14.8625C27.1595 15.5997 27.6071 16.2696 28.1713 16.8338C28.7355 17.398 29.4054 17.8456 30.1426 18.151C30.8798 18.4563 31.6699 18.6135 32.4678 18.6135H36.7579C36.7847 18.6078 36.81 18.5969 36.8325 18.5814C36.855 18.5659 36.8743 18.5461 36.8891 18.5231C36.9039 18.5001 36.914 18.4744 36.9189 18.4475C36.9238 18.4206 36.9232 18.393 36.9174 18.3663C36.838 17.9899 36.6526 17.6441 36.3831 17.3695Z" fill="#E0474C"/>
<path d="M32.7152 17.6327H36.5986C36.5316 17.5411 36.4598 17.4533 36.3833 17.3695L27.6596 8.65388C27.5813 8.57135 27.4929 8.49901 27.3965 8.43858V12.314C27.3965 13.7246 27.9568 15.0774 28.9543 16.0749C29.9518 17.0723 31.3046 17.6327 32.7152 17.6327Z" fill="#FFCBCD"/>
<path d="M29.7579 28.1505C28.4604 28.0646 27.2249 27.5643 26.2333 26.7231C24.3004 27.1632 22.4088 27.7689 20.5797 28.5333C19.1045 31.1248 17.725 32.4804 16.5368 32.4804C16.2837 32.4912 16.0333 32.4244 15.8192 32.2891C15.5764 32.175 15.3719 31.9931 15.2303 31.7652C15.0888 31.5374 15.0164 31.2734 15.0218 31.0052C15.0218 30.5826 15.1175 29.4104 19.6308 27.4408C20.6529 25.5633 21.494 23.5928 22.1426 21.5559C21.5765 20.4156 20.3405 17.5689 21.1937 16.1814C21.3338 15.918 21.5485 15.7019 21.8109 15.56C22.0734 15.4181 22.3718 15.3569 22.6689 15.384C22.9084 15.3882 23.1439 15.4463 23.3579 15.554C23.5718 15.6616 23.7588 15.8161 23.9049 16.006C24.5269 16.8592 24.479 18.6693 23.6657 21.3327C24.4333 22.7542 25.4301 24.0393 26.6161 25.1363C27.593 24.9402 28.5861 24.8361 29.5824 24.8253C31.8152 24.8732 32.1501 25.9178 32.1022 26.5397C32.1022 28.1346 30.5074 28.1346 29.71 28.1346L29.7579 28.1505ZM16.4412 31.1248L16.5847 31.077C17.2566 30.8349 17.8214 30.3633 18.1795 29.7453C17.4748 30.0204 16.8691 30.5011 16.4412 31.1248ZM22.7646 16.8592H22.6211C22.5536 16.852 22.4858 16.869 22.4297 16.907C22.2676 17.7147 22.3682 18.5529 22.7168 19.2993C22.9942 18.5012 23.011 17.6355 22.7646 16.8273V16.8592ZM23.0995 23.7568L23.0517 23.8525L23.0038 23.8046C22.5732 24.8971 22.0948 25.9895 21.5765 27.0341L21.6722 26.9863V27.082C22.7294 26.7035 23.8077 26.3867 24.9017 26.1331L24.8538 26.0852H24.9973C24.2855 25.3772 23.6495 24.5968 23.0995 23.7568ZM29.5824 26.2527C29.1681 26.2366 28.7534 26.2687 28.3465 26.3484C28.7929 26.5663 29.278 26.6936 29.7738 26.7231C30.0927 26.7633 30.4166 26.7334 30.7227 26.6354C30.7227 26.4919 30.5314 26.2527 29.5824 26.2527Z" fill="white"/>
</svg>
