<svg width="48" height="48" viewBox="0 0 48 48" fill="none" xmlns="http://www.w3.org/2000/svg">
<rect width="48" height="48" rx="8" fill="white"/>
<g transform="translate(6, 6)">
<g clip-path="url(#clip0_1116_3341)">
<mask id="mask0_1116_3341" style="mask-type:luminance" maskUnits="userSpaceOnUse" x="2" y="2" width="32" height="32">
<path fill-rule="evenodd" clip-rule="evenodd" d="M2 2H34V34H2V2Z" fill="white"/>
</mask>
<g mask="url(#mask0_1116_3341)">
<path fill-rule="evenodd" clip-rule="evenodd" d="M9.55457 2.07177C8.17568 2.07177 6.85327 2.61953 5.87825 3.59455C4.90323 4.56957 4.35547 5.89198 4.35547 7.27087V28.8009C4.35547 30.1798 4.90323 31.5022 5.87825 32.4772C6.85327 33.4522 8.17568 34 9.55457 34H25.7579C26.441 34.001 27.1175 33.8673 27.7488 33.6064C28.38 33.3455 28.9536 32.9625 29.4366 32.4796C29.9196 31.9966 30.3025 31.423 30.5634 30.7917C30.8243 30.1605 30.9581 29.4839 30.957 28.8009V12.773C30.9562 12.2481 30.7502 11.7444 30.3829 11.3695L21.6592 2.65387C21.2895 2.28265 20.7877 2.0733 20.2638 2.07177H9.55457Z" fill="#727D8F"/>
<path d="M21 17.0086H18.4896V24H16.4953V17.0086H14L14 15H21V17.0086Z" fill="white"/>
<path fill-rule="evenodd" clip-rule="evenodd" d="M30.3831 11.3695L21.6595 2.65387C21.3837 2.37743 21.0306 2.19114 20.6468 2.11961C20.6163 2.10867 20.5836 2.10561 20.5517 2.11073C20.5198 2.11585 20.4897 2.12898 20.4642 2.14889C20.4387 2.16879 20.4187 2.19483 20.406 2.22458C20.3933 2.25432 20.3883 2.28679 20.3916 2.31896V6.53725C20.3916 7.3352 20.5488 8.12533 20.8541 8.86253C21.1595 9.59974 21.6071 10.2696 22.1713 10.8338C22.7355 11.398 23.4054 11.8456 24.1426 12.151C24.8798 12.4563 25.6699 12.6135 26.4678 12.6135H30.7579C30.7847 12.6078 30.81 12.5969 30.8325 12.5814C30.855 12.5659 30.8743 12.5461 30.8891 12.5231C30.9039 12.5001 30.914 12.4744 30.9189 12.4475C30.9238 12.4206 30.9232 12.393 30.9174 12.3663C30.838 11.9899 30.6526 11.6441 30.3831 11.3695Z" fill="#1C1C23" fill-opacity="0.1"/>
<path fill-rule="evenodd" clip-rule="evenodd" d="M26.7152 11.6327H30.5986C30.5316 11.5411 30.4598 11.4533 30.3833 11.3695L21.6596 2.65388C21.5813 2.57135 21.4929 2.49901 21.3965 2.43858V6.31398C21.3965 7.72459 21.9568 9.07743 22.9543 10.0749C23.9518 11.0723 25.3046 11.6327 26.7152 11.6327Z" fill="white" fill-opacity="0.7"/>
</g>
</g>
</g>
<defs>
<clipPath id="clip0_1116_3341">
<rect width="36" height="36" fill="white"/>
</clipPath>
</defs>
</svg>
