<svg width="48" height="48" viewBox="0 0 48 48" fill="none" xmlns="http://www.w3.org/2000/svg">
<rect width="48" height="48" rx="8" fill="white"/>
<g clip-path="url(#clip0_440_4895)">
<path d="M15.9315 8.00001C15.2469 7.99896 14.5688 8.13302 13.9362 8.39452C13.3035 8.65601 12.7286 9.0398 12.2446 9.52387C11.7605 10.0079 11.3767 10.5828 11.1152 11.2155C10.8537 11.8482 10.7197 12.5262 10.7207 13.2108V34.7892C10.7197 35.4738 10.8537 36.1519 11.1152 36.7845C11.3767 37.4172 11.7605 37.9921 12.2446 38.4761C12.7286 38.9602 13.3035 39.344 13.9362 39.6055C14.5688 39.867 15.2469 40.0011 15.9315 40H32.1712C32.8555 40 33.5331 39.8652 34.1653 39.6034C34.7975 39.3415 35.372 38.9577 35.8558 38.4738C36.3397 37.9899 36.7235 37.4155 36.9854 36.7833C37.2473 36.1511 37.382 35.4735 37.382 34.7892V18.7253C37.3828 18.4658 37.3323 18.2087 37.2336 17.9687C37.1348 17.7287 36.9897 17.5105 36.8066 17.3267L28.0634 8.58343C27.7027 8.22099 27.2159 8.01195 26.7047 8.00001H15.9315Z" fill="#6569E8"/>
<path d="M14.3379 8H17.0046V10.6667H14.3379V8ZM14.3379 13.3333H17.0046V16H14.3379V13.3333ZM14.3379 18.6667H17.0046V21.3333H14.3379V18.6667ZM14.3379 24H17.0046V26.6667H14.3379V24ZM14.3379 29.3333H17.0046V32H14.3379V29.3333ZM14.3379 34.6667H17.0046V37.3333H14.3379V34.6667Z" fill="white"/>
<path d="M31.1387 15H33.8053V17.6667H31.1387V15ZM31.1387 20.3333H33.8053V23H31.1387V20.3333ZM31.1387 25.6667H33.8053V28.3333H31.1387V25.6667ZM31.1387 31H33.8053V33.6667H31.1387V31ZM31.1387 36.3333H33.8053V39H31.1387V36.3333Z" fill="white"/>
<path d="M27.1749 25.237L21.8894 28.8776C21.5429 29.1164 21.0685 29.0289 20.8298 28.6824C20.7422 28.5553 20.6953 28.4046 20.6953 28.2502V20.9688C20.6953 20.5481 21.0364 20.2069 21.4572 20.2069C21.6116 20.2069 21.7623 20.2538 21.8894 20.3414L27.1749 23.9821C27.5214 24.2208 27.6088 24.6952 27.3701 25.0417C27.3175 25.1182 27.2513 25.1843 27.1749 25.237V25.237Z" fill="white"/>
<path d="M36.8065 17.3267L28.0633 8.58343C27.7869 8.30637 27.433 8.11966 27.0483 8.04796C27.0199 8.04312 26.9907 8.04473 26.963 8.0527C26.9353 8.06066 26.9098 8.07476 26.8883 8.09396C26.8668 8.11316 26.8499 8.13696 26.8388 8.16358C26.8278 8.19021 26.8229 8.21898 26.8245 8.24776V12.4755C26.8235 13.2759 26.9802 14.0687 27.2858 14.8085C27.5914 15.5483 28.0398 16.2206 28.6054 16.7869C29.171 17.3533 29.8427 17.8026 30.5821 18.1091C31.3215 18.4157 32.114 18.5734 32.9144 18.5734H37.1422C37.1707 18.5727 37.1987 18.5658 37.2243 18.5533C37.2499 18.5409 37.2726 18.523 37.2907 18.5011C37.3089 18.4791 37.3221 18.4536 37.3296 18.4261C37.3371 18.3986 37.3386 18.3698 37.334 18.3417C37.267 17.9571 37.0828 17.6026 36.8065 17.3267Z" fill="#4046EE"/>
<path d="M33.0975 17.5904H36.9896C36.9266 17.4956 36.8543 17.4073 36.7738 17.3267L28.0626 8.58343C27.9803 8.50486 27.8921 8.43272 27.7988 8.36765V12.2518C27.7988 13.6608 28.3558 15.0127 29.3483 16.0127C30.3409 17.0128 31.6886 17.5799 33.0975 17.5904Z" fill="#DBDCFF"/>
</g>
<defs>
<clipPath id="clip0_440_4895">
<rect width="32" height="32" fill="white" transform="translate(8 8)"/>
</clipPath>
</defs>
</svg>
