<svg width="48" height="48" viewBox="0 0 48 48" fill="none" xmlns="http://www.w3.org/2000/svg">
<rect width="48" height="48" rx="8" fill="white"/>
<path d="M15.5546 8.07177C14.1757 8.07177 12.8533 8.61953 11.8783 9.59455C10.9032 10.5696 10.3555 11.892 10.3555 13.2709V34.8009C10.3555 36.1798 10.9032 37.5022 11.8783 38.4772C12.8533 39.4522 14.1757 40 15.5546 40H31.7579C32.441 40.001 33.1175 39.8673 33.7488 39.6064C34.38 39.3455 34.9536 38.9625 35.4366 38.4796C35.9196 37.9966 36.3025 37.423 36.5634 36.7917C36.8243 36.1605 36.9581 35.4839 36.957 34.8009V18.773C36.9562 18.2481 36.7502 17.7444 36.3829 17.3695L27.6592 8.65387C27.2895 8.28265 26.7877 8.0733 26.2638 8.07177H15.5546Z" fill="#3F70FF"/>
<path d="M36.3831 17.3695L27.6595 8.65387C27.3837 8.37743 27.0306 8.19114 26.6468 8.11961C26.6163 8.10867 26.5836 8.10561 26.5517 8.11073C26.5198 8.11585 26.4897 8.12898 26.4642 8.14889C26.4387 8.16879 26.4187 8.19483 26.406 8.22458C26.3933 8.25432 26.3883 8.28679 26.3916 8.31896V12.5373C26.3916 13.3352 26.5488 14.1253 26.8541 14.8625C27.1595 15.5997 27.6071 16.2696 28.1713 16.8338C28.7355 17.398 29.4054 17.8456 30.1426 18.151C30.8798 18.4563 31.6699 18.6135 32.4678 18.6135H36.7579C36.7847 18.6078 36.81 18.5969 36.8325 18.5814C36.855 18.5659 36.8743 18.5461 36.8891 18.5231C36.9039 18.5001 36.914 18.4744 36.9189 18.4475C36.9238 18.4206 36.9232 18.393 36.9174 18.3663C36.838 17.9899 36.6526 17.6441 36.3831 17.3695Z" fill="#67A1F0"/>
<path d="M32.7152 17.6327H36.5986C36.5316 17.5411 36.4598 17.4533 36.3833 17.3695L27.6596 8.65388C27.5813 8.57135 27.4929 8.49901 27.3965 8.43858V12.314C27.3965 13.7246 27.9568 15.0774 28.9543 16.0749C29.9518 17.0723 31.3046 17.6327 32.7152 17.6327Z" fill="#DEECFF"/>
<path d="M15.5059 8H18.1725V10.6667H15.5059V8ZM18.1725 10.6667H20.8392V13.3333H18.1725V10.6667ZM15.5059 13.3333H18.1725V16H15.5059V13.3333ZM18.1725 16H20.8392V18.6667H18.1725V16ZM15.5059 18.6667H18.1725V21.3333H15.5059V18.6667ZM15.5059 22.3238H20.8392V26.5143C20.8392 27.1455 20.3275 27.6571 19.6963 27.6571H16.6487C16.0175 27.6571 15.5059 27.1455 15.5059 26.5143V22.3238Z" fill="white"/>
</svg>
